<?xml version="1.0" standalone="no"?>
<!DOCTYPE svg PUBLIC "-//W3C//DTD SVG 20010904//EN"
 "http://www.w3.org/TR/2001/REC-SVG-20010904/DTD/svg10.dtd">
<svg version="1.0" xmlns="http://www.w3.org/2000/svg"
 width="36.000000pt" height="25.000000pt" viewBox="0 0 36.000000 25.000000"
 preserveAspectRatio="xMidYMid meet">

<g transform="translate(0.000000,25.000000) scale(0.100000,-0.100000)"
fill="#000000" stroke="none">
<path d="M192 227 c-12 -13 -22 -30 -22 -39 0 -38 -88 -66 -117 -37 -23 23 -3
48 41 51 28 2 41 8 41 18 0 11 -13 16 -47 18 -37 2 -50 -1 -67 -19 -18 -20
-21 -35 -21 -121 0 -98 0 -98 25 -98 21 0 25 5 25 30 l0 30 79 0 c79 0 80 0
83 -27 2 -17 9 -28 18 -28 11 0 16 14 18 53 3 48 5 52 28 52 31 0 69 36 78 72
6 26 4 27 -21 22 -23 -4 -30 -1 -38 18 -15 34 -73 37 -103 5z m93 -7 c3 -5 1
-10 -4 -10 -6 0 -11 5 -11 10 0 6 2 10 4 10 3 0 8 -4 11 -10z m-200 -9 c-48
-6 -50 -7 -53 -40 -3 -24 3 -40 19 -57 45 -48 113 -16 126 60 6 38 23 60 23
30 0 -10 10 -29 23 -43 20 -23 23 -34 18 -91 -3 -49 -6 -58 -10 -35 l-6 30
-93 3 -92 3 -2 -33 -1 -33 -4 33 c-2 17 -8 32 -14 32 -13 0 -11 124 3 138 7 7
34 11 63 10 l50 -1 -50 -6z m255 -28 c0 -17 -24 -44 -36 -39 -8 3 -14 1 -14
-4 0 -6 -4 -10 -10 -10 -5 0 -10 15 -10 33 0 32 1 33 35 29 19 -2 35 -6 35 -9z
m-323 -165 c-3 -7 -5 -2 -5 12 0 14 2 19 5 13 2 -7 2 -19 0 -25z"/>
</g>
</svg>
