<?xml version="1.0" standalone="no"?>
<!DOCTYPE svg PUBLIC "-//W3C//DTD SVG 20010904//EN"
 "http://www.w3.org/TR/2001/REC-SVG-20010904/DTD/svg10.dtd">
<svg version="1.0" xmlns="http://www.w3.org/2000/svg"
 width="40.000000pt" height="35.000000pt" viewBox="0 0 40.000000 35.000000"
 preserveAspectRatio="xMidYMid meet">

<g transform="translate(0.000000,35.000000) scale(0.100000,-0.100000)"
fill="#000000" stroke="none">
<path d="M123 343 c-17 -6 -17 -56 0 -50 6 2 11 15 9 28 -2 19 0 21 8 9 9 -13
11 -13 19 0 6 8 13 11 17 7 4 -4 -5 -17 -19 -30 -33 -28 -34 -37 -3 -37 19 0
26 7 31 30 4 16 4 34 0 40 -6 10 -40 12 -62 3z"/>
<path d="M204 338 c-4 -6 1 -17 10 -24 13 -9 14 -13 4 -18 -7 -3 -3 -4 10 -2
14 3 22 -1 22 -10 0 -8 8 -14 18 -14 15 0 15 -2 2 -11 -12 -8 -12 -10 -1 -7
20 6 21 47 2 58 -10 6 -11 10 -3 10 14 0 17 30 2 30 -5 0 -14 -8 -19 -17 -10
-17 -10 -17 -11 0 0 19 -25 23 -36 5z m26 -8 c0 -5 -4 -10 -10 -10 -5 0 -10 5
-10 10 0 6 5 10 10 10 6 0 10 -4 10 -10z"/>
<path d="M306 324 c-10 -26 -7 -31 17 -29 15 1 23 9 25 26 2 19 1 21 -7 9 -7
-10 -11 -11 -11 -2 0 17 -17 15 -24 -4z"/>
<path d="M360 320 c0 -13 7 -20 20 -20 13 0 20 7 20 20 0 13 -7 20 -20 20 -13
0 -20 -7 -20 -20z"/>
<path d="M168 199 c-10 -5 -18 -20 -18 -33 0 -39 -20 -54 -67 -49 -33 4 -43 9
-43 23 0 10 8 20 18 23 13 3 12 4 -3 3 -25 -1 -32 -39 -14 -72 8 -17 21 -24
41 -24 15 0 28 4 28 9 0 5 9 12 19 16 14 4 22 19 27 51 6 44 24 62 24 24 0
-23 29 -60 47 -60 7 0 13 11 13 25 0 20 5 25 25 25 18 0 25 -5 25 -20 0 -13
-7 -20 -20 -20 -11 0 -20 -4 -20 -10 0 -5 -9 -10 -20 -10 -10 0 -24 -9 -30
-20 -9 -17 -21 -20 -90 -20 -79 0 -80 0 -80 -25 0 -14 -4 -25 -10 -25 -16 0
-13 149 4 166 30 29 62 16 57 -23 -3 -18 16 -16 23 2 7 20 -20 45 -49 45 -44
0 -55 -24 -55 -116 0 -76 2 -85 17 -82 10 2 19 13 21 26 3 21 8 22 78 22 72 0
74 -1 74 -25 0 -14 5 -25 10 -25 6 0 10 20 10 45 0 44 1 45 33 45 25 0 36 6
50 29 23 39 21 51 -6 51 -12 0 -28 9 -35 20 -13 22 -55 26 -84 9z m80 -24 c-3
-3 -9 2 -12 12 -6 14 -5 15 5 6 7 -7 10 -15 7 -18z"/>
</g>
</svg>
