<?xml version="1.0" standalone="no"?>
<!DOCTYPE svg PUBLIC "-//W3C//DTD SVG 20010904//EN"
 "http://www.w3.org/TR/2001/REC-SVG-20010904/DTD/svg10.dtd">
<svg version="1.0" xmlns="http://www.w3.org/2000/svg"
 width="30.000000pt" height="27.000000pt" viewBox="0 0 30.000000 27.000000"
 preserveAspectRatio="xMidYMid meet">

<g transform="translate(0.000000,27.000000) scale(0.100000,-0.100000)"
fill="#000000" stroke="none">
<path d="M152 247 c-15 -16 -22 -36 -22 -63 0 -32 -7 -46 -33 -72 -26 -25 -36
-29 -45 -20 -22 22 -14 41 14 34 22 -6 25 -4 22 16 -4 29 -42 36 -69 12 -54
-49 10 -154 93 -154 31 0 39 3 35 14 -3 8 -1 17 6 19 7 2 9 8 5 11 -3 4 -16
-2 -27 -13 -12 -12 -27 -21 -35 -21 -26 0 -86 65 -86 93 0 41 47 75 65 47 4
-6 -5 -10 -19 -10 -21 0 -26 -5 -26 -23 0 -31 29 -57 63 -57 46 0 87 86 56
117 -7 7 -9 23 -5 38 l7 26 25 -31 c34 -40 44 -38 44 11 0 26 4 38 11 34 6 -4
8 -13 5 -21 -4 -10 2 -14 19 -14 15 0 25 -6 25 -14 0 -15 -30 -44 -31 -30 0 5
-4 0 -8 -11 -5 -12 -4 -23 3 -27 16 -11 28 -10 21 3 -4 5 0 18 8 27 8 9 18 27
21 40 6 18 4 22 -16 22 -13 0 -29 9 -36 20 -17 28 -63 26 -90 -3z"/>
<path d="M215 132 c4 -20 1 -33 -10 -42 -8 -7 -16 -29 -16 -49 l-2 -36 -6 40
c-3 22 -9 35 -13 29 -11 -16 7 -69 23 -69 9 0 13 9 11 28 -2 15 3 39 12 52 16
25 18 75 3 75 -5 0 -6 -13 -2 -28z"/>
</g>
</svg>
